<svg xmlns="http://www.w3.org/2000/svg" width="900" height="470" viewBox="0 0 900 470" font-family="-apple-system,'Segoe UI',Helvetica,Arial,sans-serif">
  <rect x="0" y="0" width="900" height="470" rx="12" fill="#ffffff" stroke="#d0d7de"/>
  <text x="36" y="38" font-size="21" font-weight="800" fill="#24292f">Yearly API bill Lynx removes — 25 engineers</text>
  <text x="36" y="62" font-size="13.5" fill="#57606a">Measured fewer tokens to answer (Django 5.2 58% · Json.NET 77% · Guava 86%), at 2026-06 flagship input prices · 31,500 retrievals/month</text>
  <rect x="550" y="24" width="14" height="14" rx="2" fill="#e8742c"/><text x="570" y="36" font-size="12" fill="#57606a">Django 5.2 (Python) — 58% fewer tokens</text><rect x="550" y="44" width="14" height="14" rx="2" fill="#2f81f7"/><text x="570" y="56" font-size="12" fill="#57606a">Json.NET (C#) — 77% fewer tokens</text><rect x="550" y="64" width="14" height="14" rx="2" fill="#1a7f5a"/><text x="570" y="76" font-size="12" fill="#57606a">Guava (Java) — 86% fewer tokens</text>
  <line x1="76" y1="323" x2="870" y2="323" stroke="#e1e4e8"/><text x="68" y="327" font-size="11" fill="#57606a" text-anchor="end">$27k</text><line x1="76" y1="254" x2="870" y2="254" stroke="#e1e4e8"/><text x="68" y="258" font-size="11" fill="#57606a" text-anchor="end">$55k</text><line x1="76" y1="185" x2="870" y2="185" stroke="#e1e4e8"/><text x="68" y="189" font-size="11" fill="#57606a" text-anchor="end">$82k</text><line x1="76" y1="116" x2="870" y2="116" stroke="#e1e4e8"/><text x="68" y="120" font-size="11" fill="#57606a" text-anchor="end">$110k</text>
  <rect x="114" y="179" width="57" height="213" rx="3" fill="#e8742c"/><text x="142" y="173" font-size="12" font-weight="800" fill="#e8742c" text-anchor="middle">$85k</text><rect x="177" y="154" width="57" height="238" rx="3" fill="#2f81f7"/><text x="205" y="148" font-size="12" font-weight="800" fill="#2f81f7" text-anchor="middle">$95k</text><rect x="240" y="154" width="57" height="238" rx="3" fill="#1a7f5a"/><text x="268" y="148" font-size="12" font-weight="800" fill="#1a7f5a" text-anchor="middle">$95k</text><rect x="378" y="286" width="57" height="106" rx="3" fill="#e8742c"/><text x="407" y="280" font-size="12" font-weight="800" fill="#e8742c" text-anchor="middle">$42k</text><rect x="441" y="273" width="57" height="119" rx="3" fill="#2f81f7"/><text x="470" y="267" font-size="12" font-weight="800" fill="#2f81f7" text-anchor="middle">$47k</text><rect x="505" y="273" width="57" height="119" rx="3" fill="#1a7f5a"/><text x="533" y="267" font-size="12" font-weight="800" fill="#1a7f5a" text-anchor="middle">$47k</text><rect x="643" y="286" width="57" height="106" rx="3" fill="#e8742c"/><text x="672" y="280" font-size="12" font-weight="800" fill="#e8742c" text-anchor="middle">$42k</text><rect x="706" y="273" width="57" height="119" rx="3" fill="#2f81f7"/><text x="735" y="267" font-size="12" font-weight="800" fill="#2f81f7" text-anchor="middle">$47k</text><rect x="769" y="273" width="57" height="119" rx="3" fill="#1a7f5a"/><text x="798" y="267" font-size="12" font-weight="800" fill="#1a7f5a" text-anchor="middle">$47k</text>
  <text x="208" y="414" font-size="14" font-weight="700" fill="#24292f" text-anchor="middle">Claude Fable 5</text><text x="208" y="432" font-size="11" fill="#57606a" text-anchor="middle">Anthropic flagship · $10/1M</text><text x="473" y="414" font-size="14" font-weight="700" fill="#24292f" text-anchor="middle">Claude Opus 4.8</text><text x="473" y="432" font-size="11" fill="#57606a" text-anchor="middle">top coding model · $5/1M</text><text x="738" y="414" font-size="14" font-weight="700" fill="#24292f" text-anchor="middle">GPT-5.5</text><text x="738" y="432" font-size="11" fill="#57606a" text-anchor="middle">OpenAI flagship · $5/1M</text>
  <text x="36" y="452" font-size="11.5" fill="#57606a">Realistic figure: measured token delta + one eliminated grep round-trip re-billing a 20k context. Conservative floor (tool output only) is in benchmarks/RESULTS*.md. Reproduce: benchmarks/savings_calculator.py</text>
</svg>
