<svg xmlns="http://www.w3.org/2000/svg" width="900" height="470" viewBox="0 0 900 470" font-family="-apple-system,'Segoe UI',Helvetica,Arial,sans-serif">
  <rect x="0" y="0" width="900" height="470" rx="12" fill="#ffffff" stroke="#d0d7de"/>
  <text x="36" y="38" font-size="21" font-weight="800" fill="#24292f">Yearly API bill Lynx removes — 25 engineers</text>
  <text x="36" y="60" font-size="13" fill="#57606a">Realistic estimate · 2026-06 flagship input prices · 31,500 retrievals/month</text>
  <rect x="36" y="78" width="13" height="13" rx="2" fill="#e8742c"/><text x="55" y="89" font-size="12.5" fill="#24292f">Django 5.2 (Python) −58%</text><rect x="249" y="78" width="13" height="13" rx="2" fill="#2f81f7"/><text x="268" y="89" font-size="12.5" fill="#24292f">Json.NET (C#) −77%</text><rect x="420" y="78" width="13" height="13" rx="2" fill="#1a7f5a"/><text x="439" y="89" font-size="12.5" fill="#24292f">Guava (Java) −86%</text>
  <line x1="76" y1="327" x2="870" y2="327" stroke="#e1e4e8"/><text x="68" y="331" font-size="11" fill="#57606a" text-anchor="end">$27k</text><line x1="76" y1="262" x2="870" y2="262" stroke="#e1e4e8"/><text x="68" y="266" font-size="11" fill="#57606a" text-anchor="end">$55k</text><line x1="76" y1="197" x2="870" y2="197" stroke="#e1e4e8"/><text x="68" y="201" font-size="11" fill="#57606a" text-anchor="end">$82k</text><line x1="76" y1="132" x2="870" y2="132" stroke="#e1e4e8"/><text x="68" y="136" font-size="11" fill="#57606a" text-anchor="end">$110k</text>
  <rect x="114" y="192" width="57" height="200" rx="3" fill="#e8742c"/><text x="142" y="186" font-size="12" font-weight="800" fill="#e8742c" text-anchor="middle">$85k</text><rect x="177" y="168" width="57" height="224" rx="3" fill="#2f81f7"/><text x="205" y="162" font-size="12" font-weight="800" fill="#2f81f7" text-anchor="middle">$95k</text><rect x="240" y="168" width="57" height="224" rx="3" fill="#1a7f5a"/><text x="268" y="162" font-size="12" font-weight="800" fill="#1a7f5a" text-anchor="middle">$95k</text><rect x="378" y="292" width="57" height="100" rx="3" fill="#e8742c"/><text x="407" y="286" font-size="12" font-weight="800" fill="#e8742c" text-anchor="middle">$42k</text><rect x="441" y="280" width="57" height="112" rx="3" fill="#2f81f7"/><text x="470" y="274" font-size="12" font-weight="800" fill="#2f81f7" text-anchor="middle">$47k</text><rect x="505" y="280" width="57" height="112" rx="3" fill="#1a7f5a"/><text x="533" y="274" font-size="12" font-weight="800" fill="#1a7f5a" text-anchor="middle">$47k</text><rect x="643" y="292" width="57" height="100" rx="3" fill="#e8742c"/><text x="672" y="286" font-size="12" font-weight="800" fill="#e8742c" text-anchor="middle">$42k</text><rect x="706" y="280" width="57" height="112" rx="3" fill="#2f81f7"/><text x="735" y="274" font-size="12" font-weight="800" fill="#2f81f7" text-anchor="middle">$47k</text><rect x="769" y="280" width="57" height="112" rx="3" fill="#1a7f5a"/><text x="798" y="274" font-size="12" font-weight="800" fill="#1a7f5a" text-anchor="middle">$47k</text>
  <text x="208" y="414" font-size="14" font-weight="700" fill="#24292f" text-anchor="middle">Claude Fable 5</text><text x="208" y="432" font-size="11" fill="#57606a" text-anchor="middle">Anthropic flagship · $10/1M</text><text x="473" y="414" font-size="14" font-weight="700" fill="#24292f" text-anchor="middle">Claude Opus 4.8</text><text x="473" y="432" font-size="11" fill="#57606a" text-anchor="middle">top coding model · $5/1M</text><text x="738" y="414" font-size="14" font-weight="700" fill="#24292f" text-anchor="middle">GPT-5.5</text><text x="738" y="432" font-size="11" fill="#57606a" text-anchor="middle">OpenAI flagship · $5/1M</text>
  <text x="36" y="452" font-size="10.5" fill="#57606a">Realistic = measured token delta + one saved grep round-trip (20k context). Floor (tool output only) in benchmarks/RESULTS*.md.</text>
</svg>
