<svg viewBox="0 0 800 488" width="800" height="488" xmlns="http://www.w3.org/2000/svg"><style>.edge{stroke:#94a3b8;stroke-width:1.2}.nlabel{fill:#fff;font:12px monospace}.node:hover rect{stroke:#0f172a;stroke-width:2}</style><defs><marker id="arrow" viewBox="0 0 10 10" refX="9" refY="5" markerWidth="7" markerHeight="7" orient="auto-start-reverse"><path d="M0,0 L10,5 L0,10 z" fill="#94a3b8"/></marker></defs><line x1="400" y1="322" x2="592" y2="418" class="edge" marker-end="url(#arrow)"/><line x1="400" y1="322" x2="400" y2="418" class="edge" marker-end="url(#arrow)"/><line x1="400" y1="322" x2="208" y2="418" class="edge" marker-end="url(#arrow)"/><line x1="304" y1="196" x2="400" y2="292" class="edge" marker-end="url(#arrow)"/><line x1="496" y1="196" x2="400" y2="292" class="edge" marker-end="url(#arrow)"/><line x1="400" y1="70" x2="304" y2="166" class="edge" marker-end="url(#arrow)"/><g class="node"><title>VoxelWorld.GetVoxel  (function)  Assets\Framework\Voxel\VoxelWorld.cs:91</title><rect x="316" y="292" width="168" height="30" rx="6" fill="#4f46e5"/><text x="400" y="311" text-anchor="middle" class="nlabel">VoxelWorld.GetVoxel</text></g><g class="node"><title>ChunkMesher.Build  (function)  Assets\Framework\Voxel\ChunkMesher.cs:44</title><rect x="220" y="166" width="168" height="30" rx="6" fill="#2563eb"/><text x="304" y="185" text-anchor="middle" class="nlabel">ChunkMesher.Build</text></g><g class="node"><title>VoxelRaycaster.Sample  (function)  Assets\Framework\Voxel\VoxelRaycaster.cs:20</title><rect x="412" y="166" width="168" height="30" rx="6" fill="#2563eb"/><text x="496" y="185" text-anchor="middle" class="nlabel">VoxelRaycaster.Sample</text></g><g class="node"><title>WFCSolver.Collapse  (function)  Assets\Framework\WFC\WFCSolver.cs:132</title><rect x="316" y="40" width="168" height="30" rx="6" fill="#2563eb"/><text x="400" y="59" text-anchor="middle" class="nlabel">WFCSolver.Collapse</text></g><g class="node"><title>VoxelWorld.WorldToChunk  (function)  Assets\Framework\Voxel\VoxelWorld.cs:57</title><rect x="508" y="418" width="168" height="30" rx="6" fill="#059669"/><text x="592" y="437" text-anchor="middle" class="nlabel">VoxelWorld.WorldToChunk</text></g><g class="node"><title>VoxelWorld.LocalCoord  (function)  Assets\Framework\Voxel\VoxelWorld.cs:58</title><rect x="316" y="418" width="168" height="30" rx="6" fill="#059669"/><text x="400" y="437" text-anchor="middle" class="nlabel">VoxelWorld.LocalCoord</text></g><g class="node"><title>VoxelChunk.GetLocal  (function)  Assets\Framework\Voxel\VoxelChunk.cs:40</title><rect x="124" y="418" width="168" height="30" rx="6" fill="#059669"/><text x="208" y="437" text-anchor="middle" class="nlabel">VoxelChunk.GetLocal</text></g></svg>